<svg xmlns="http://www.w3.org/2000/svg" viewBox="0 0 512 512">
  <rect width="512" height="512" rx="112" fill="#050505"/>
  <path d="M116 266c12-50 24-91 41-108 15-15 72-22 99-22s84 7 99 22c17 17 29 58 41 108l18 14c8 6 12 15 12 25v70c0 10-8 18-18 18h-20v20c0 16-13 29-29 29s-29-13-29-29v-20H182v20c0 16-13 29-29 29s-29-13-29-29v-20h-20c-10 0-18-8-18-18v-70c0-10 5-19 12-25l18-14Z" fill="#ffffff"/>
  <path d="M166 244c8-30 17-58 28-69 8-8 51-13 62-13s54 5 62 13c11 11 20 39 28 69H166Z" fill="#d1fae5"/>
  <circle cx="160" cy="320" r="26" fill="#050505"/>
  <circle cx="352" cy="320" r="26" fill="#050505"/>
  <path d="M212 360h104" stroke="#050505" stroke-width="22" stroke-linecap="round"/>
</svg>
